HIERARCHY
ROOT Hips
{
	OFFSET -0.423459 88.195518 5.389343
	CHANNELS 6 Xposition Yposition Zposition Zrotation Yrotation Xrotation 
	JOINT Spine
	{
		OFFSET -0.000000 8.814246 -2.080107
		CHANNELS 3 Zrotation Yrotation Xrotation
		JOINT Spine1
		{
			OFFSET -0.000000 8.844141 0.000000
			CHANNELS 3 Zrotation Yrotation Xrotation
			JOINT Spine2
			{
				OFFSET 0.000000 11.682268 0.000000
				CHANNELS 3 Zrotation Yrotation Xrotation
				JOINT Spine3
				{
					OFFSET -0.000000 11.746700 0.000000
					CHANNELS 3 Zrotation Yrotation Xrotation
					JOINT Neck
					{
						OFFSET -0.000000 17.658264 0.000000
						CHANNELS 3 Zrotation Yrotation Xrotation
						JOINT Neck1
						{
							OFFSET 0.000000 5.101515 -0.000000
							CHANNELS 3 Zrotation Yrotation Xrotation
							JOINT Head
							{
								OFFSET -0.000000 5.101515 -0.000000
								CHANNELS 3 Zrotation Yrotation Xrotation
								JOINT HeadEnd
								{
									OFFSET 0.000000 11.655085 -0.000000
									CHANNELS 3 Zrotation Yrotation Xrotation
									End Site
									{
										OFFSET 0.000000 0.000000 0.000000
									}
								}
							}
						}
					}
					JOINT RightShoulder
					{
						OFFSET -2.625389 11.175210 -0.000000
						CHANNELS 3 Zrotation Yrotation Xrotation
						JOINT RightArm
						{
							OFFSET 0.000000 10.434715 -0.000000
							CHANNELS 3 Zrotation Yrotation Xrotation
							JOINT RightForeArm
							{
								OFFSET -0.000000 29.628420 0.000000
								CHANNELS 3 Zrotation Yrotation Xrotation
								JOINT RightHand
								{
									OFFSET -0.000000 22.857611 0.000000
									CHANNELS 3 Zrotation Yrotation Xrotation
									JOINT RightHandThumb1
									{
										OFFSET -2.867323 3.959563 2.944291
										CHANNELS 3 Zrotation Yrotation Xrotation
										JOINT RightHandThumb2
										{
											OFFSET -0.000000 3.350399 0.000000
											CHANNELS 3 Zrotation Yrotation Xrotation
											JOINT RightHandThumb3
											{
												OFFSET -0.000000 3.756509 -0.000000
												CHANNELS 3 Zrotation Yrotation Xrotation
												JOINT RightHandThumb4
												{
													OFFSET -0.000000 3.147345 0.000000
													CHANNELS 3 Zrotation Yrotation Xrotation
													End Site
													{
														OFFSET 0.000000 0.000000 0.000000
													}
												}
											}
										}
									}
									JOINT RightHandIndex1
									{
										OFFSET -0.086752 10.030893 2.345280
										CHANNELS 3 Zrotation Yrotation Xrotation
										JOINT RightHandIndex2
										{
											OFFSET 0.000000 4.061090 -0.000000
											CHANNELS 3 Zrotation Yrotation Xrotation
											JOINT RightHandIndex3
											{
												OFFSET 0.000000 3.248873 -0.000000
												CHANNELS 3 Zrotation Yrotation Xrotation
												JOINT RightHandIndex4
												{
													OFFSET 0.000000 2.639709 0.000000
													CHANNELS 3 Zrotation Yrotation Xrotation
													End Site
													{
														OFFSET 0.000000 0.000000 0.000000
													}
												}
											}
										}
									}
									JOINT RightHandMiddle1
									{
										OFFSET 0.104102 9.502952 0.006768
										CHANNELS 3 Zrotation Yrotation Xrotation
										JOINT RightHandMiddle2
										{
											OFFSET 0.000000 4.568727 0.000000
											CHANNELS 3 Zrotation Yrotation Xrotation
											JOINT RightHandMiddle3
											{
												OFFSET 0.000000 3.654981 -0.000000
												CHANNELS 3 Zrotation Yrotation Xrotation
												JOINT RightHandMiddle4
												{
													OFFSET -0.000000 2.741236 0.000000
													CHANNELS 3 Zrotation Yrotation Xrotation
													End Site
													{
														OFFSET 0.000000 0.000000 0.000000
													}
												}
											}
										}
									}
									JOINT RightHandRing1
									{
										OFFSET 0.086752 8.921708 -2.267442
										CHANNELS 3 Zrotation Yrotation Xrotation
										JOINT RightHandRing2
										{
											OFFSET 0.000000 4.061090 -0.000000
											CHANNELS 3 Zrotation Yrotation Xrotation
											JOINT RightHandRing3
											{
												OFFSET -0.000000 3.654981 0.000000
												CHANNELS 3 Zrotation Yrotation Xrotation
												JOINT RightHandRing4
												{
													OFFSET -0.000000 2.741236 0.000000
													CHANNELS 3 Zrotation Yrotation Xrotation
													End Site
													{
														OFFSET 0.000000 0.000000 0.000000
													}
												}
											}
										}
									}
									JOINT RightHandPinky1
									{
										OFFSET -0.173504 7.976997 -4.467199
										CHANNELS 3 Zrotation Yrotation Xrotation
										JOINT RightHandPinky2
										{
											OFFSET -0.000000 3.350399 0.000000
											CHANNELS 3 Zrotation Yrotation Xrotation
											JOINT RightHandPinky3
											{
												OFFSET 0.000000 2.842763 0.000000
												CHANNELS 3 Zrotation Yrotation Xrotation
												JOINT RightHandPinky4
												{
													OFFSET 0.000000 2.639709 0.000000
													CHANNELS 3 Zrotation Yrotation Xrotation
													End Site
													{
														OFFSET 0.000000 0.000000 0.000000
													}
												}
											}
										}
									}
									JOINT RightForeArmEnd
									{
										OFFSET 0.000000 0.000000 0.000000
										CHANNELS 3 Zrotation Yrotation Xrotation
										End Site
										{
											OFFSET 0.000000 0.000000 0.000000
										}
									}
								}
								JOINT RightArmEnd
								{
									OFFSET 0.000000 0.000000 0.000000
									CHANNELS 3 Zrotation Yrotation Xrotation
									End Site
									{
										OFFSET 0.000000 0.000000 0.000000
									}
								}
							}
						}
					}
					JOINT LeftShoulder
					{
						OFFSET 2.625389 11.175210 0.000000
						CHANNELS 3 Zrotation Yrotation Xrotation
						JOINT LeftArm
						{
							OFFSET -0.000000 10.813635 -0.000000
							CHANNELS 3 Zrotation Yrotation Xrotation
							JOINT LeftForeArm
							{
								OFFSET -0.000000 28.724781 -0.000000
								CHANNELS 3 Zrotation Yrotation Xrotation
								JOINT LeftHand
								{
									OFFSET 0.644384 25.716167 -0.328871
									CHANNELS 3 Zrotation Yrotation Xrotation
									JOINT LeftHandThumb1
									{
										OFFSET 2.867323 3.959563 2.944291
										CHANNELS 3 Zrotation Yrotation Xrotation
										JOINT LeftHandThumb2
										{
											OFFSET 0.000000 3.350399 0.000000
											CHANNELS 3 Zrotation Yrotation Xrotation
											JOINT LeftHandThumb3
											{
												OFFSET -0.000000 3.756509 -0.000000
												CHANNELS 3 Zrotation Yrotation Xrotation
												JOINT LeftHandThumb4
												{
													OFFSET 0.000000 3.100000 0.000000
													CHANNELS 3 Zrotation Yrotation Xrotation
													End Site
													{
														OFFSET 0.000000 0.000000 0.000000
													}
												}
											}
										}
									}
									JOINT LeftHandIndex1
									{
										OFFSET 0.086752 10.030893 2.345280
										CHANNELS 3 Zrotation Yrotation Xrotation
										JOINT LeftHandIndex2
										{
											OFFSET 0.000000 4.061090 0.000000
											CHANNELS 3 Zrotation Yrotation Xrotation
											JOINT LeftHandIndex3
											{
												OFFSET -0.000000 3.248873 -0.000000
												CHANNELS 3 Zrotation Yrotation Xrotation
												JOINT LeftHandIndex4
												{
													OFFSET 0.000000 2.639709 0.000000
													CHANNELS 3 Zrotation Yrotation Xrotation
													End Site
													{
														OFFSET 0.000000 0.000000 0.000000
													}
												}
											}
										}
									}
									JOINT LeftHandMiddle1
									{
										OFFSET -0.104102 9.502952 0.006768
										CHANNELS 3 Zrotation Yrotation Xrotation
										JOINT LeftHandMiddle2
										{
											OFFSET -0.000000 4.568727 -0.000000
											CHANNELS 3 Zrotation Yrotation Xrotation
											JOINT LeftHandMiddle3
											{
												OFFSET -0.000000 3.654981 -0.000000
												CHANNELS 3 Zrotation Yrotation Xrotation
												JOINT LeftHandMiddle4
												{
													OFFSET 0.000000 2.741236 0.000000
													CHANNELS 3 Zrotation Yrotation Xrotation
													End Site
													{
														OFFSET 0.000000 0.000000 0.000000
													}
												}
											}
										}
									}
									JOINT LeftHandRing1
									{
										OFFSET -0.086752 8.921708 -2.267442
										CHANNELS 3 Zrotation Yrotation Xrotation
										JOINT LeftHandRing2
										{
											OFFSET 0.000000 4.061090 0.000000
											CHANNELS 3 Zrotation Yrotation Xrotation
											JOINT LeftHandRing3
											{
												OFFSET 0.000000 3.654981 -0.000000
												CHANNELS 3 Zrotation Yrotation Xrotation
												JOINT LeftHandRing4
												{
													OFFSET -0.000000 2.741236 -0.000000
													CHANNELS 3 Zrotation Yrotation Xrotation
													End Site
													{
														OFFSET 0.000000 0.000000 0.000000
													}
												}
											}
										}
									}
									JOINT LeftHandPinky1
									{
										OFFSET 0.173504 7.976997 -4.467199
										CHANNELS 3 Zrotation Yrotation Xrotation
										JOINT LeftHandPinky2
										{
											OFFSET -0.000000 3.350399 -0.000000
											CHANNELS 3 Zrotation Yrotation Xrotation
											JOINT LeftHandPinky3
											{
												OFFSET 0.000000 2.842763 -0.000000
												CHANNELS 3 Zrotation Yrotation Xrotation
												JOINT LeftHandPinky4
												{
													OFFSET -0.000000 2.639709 -0.000000
													CHANNELS 3 Zrotation Yrotation Xrotation
													End Site
													{
														OFFSET 0.000000 0.000000 0.000000
													}
												}
											}
										}
									}
									JOINT LeftForeArmEnd
									{
										OFFSET 0.000000 0.000000 0.000000
										CHANNELS 3 Zrotation Yrotation Xrotation
										End Site
										{
											OFFSET 0.000000 0.000000 0.000000
										}
									}
								}
								JOINT LeftArmEnd
								{
									OFFSET 0.000000 0.000000 0.000000
									CHANNELS 3 Zrotation Yrotation Xrotation
									End Site
									{
										OFFSET 0.000000 0.000000 0.000000
									}
								}
							}
						}
					}
				}
			}
		}
	}
	JOINT RightUpLeg
	{
		OFFSET -11.289943 -0.000000 0.000000
		CHANNELS 3 Zrotation Yrotation Xrotation
		JOINT RightLeg
		{
			OFFSET 0.000000 -38.200325 -0.000000
			CHANNELS 3 Zrotation Yrotation Xrotation
			JOINT RightFoot
			{
				OFFSET -0.000000 -39.900856 0.000000
				CHANNELS 3 Zrotation Yrotation Xrotation
				JOINT RightToeBase
				{
					OFFSET 0.000000 0.000000 15.261641
					CHANNELS 3 Zrotation Yrotation Xrotation
					JOINT RightToeBaseEnd
					{
						OFFSET 0.000000 0.000000 7.370709
						CHANNELS 3 Zrotation Yrotation Xrotation
						End Site
						{
							OFFSET 0.000000 0.000000 0.000000
						}
					}
				}
				JOINT RightLegEnd
				{
					OFFSET 0.000000 0.000000 0.000000
					CHANNELS 3 Zrotation Yrotation Xrotation
					End Site
					{
						OFFSET 0.000000 0.000000 0.000000
					}
				}
			}
			JOINT RightUpLegEnd
			{
				OFFSET 0.000000 0.000000 0.000000
				CHANNELS 3 Zrotation Yrotation Xrotation
				End Site
				{
					OFFSET 0.000000 0.000000 0.000000
				}
			}
		}
	}
	JOINT LeftUpLeg
	{
		OFFSET 11.315661 0.000000 0.000000
		CHANNELS 3 Zrotation Yrotation Xrotation
		JOINT LeftLeg
		{
			OFFSET 0.000000 -38.200325 -0.000000
			CHANNELS 3 Zrotation Yrotation Xrotation
			JOINT LeftFoot
			{
				OFFSET 0.000000 -39.900856 -0.000000
				CHANNELS 3 Zrotation Yrotation Xrotation
				JOINT LeftToeBase
				{
					OFFSET 0.000000 -0.000000 15.261641
					CHANNELS 3 Zrotation Yrotation Xrotation
					JOINT LeftToeBaseEnd
					{
						OFFSET -0.000000 0.000000 7.539996
						CHANNELS 3 Zrotation Yrotation Xrotation
						End Site
						{
							OFFSET 0.000000 0.000000 0.000000
						}
					}
				}
				JOINT LeftLegEnd
				{
					OFFSET 0.000000 0.000000 0.000000
					CHANNELS 3 Zrotation Yrotation Xrotation
					End Site
					{
						OFFSET 0.000000 0.000000 0.000000
					}
				}
			}
			JOINT LeftUpLegEnd
			{
				OFFSET 0.000000 0.000000 0.000000
				CHANNELS 3 Zrotation Yrotation Xrotation
				End Site
				{
					OFFSET 0.000000 0.000000 0.000000
				}
			}
		}
	}
}
MOTION
Frames: 5
Frame Time: 0.016667
-0.417775 88.260574 5.292652 0.010110 0.705295 -13.090627 -0.928201 -0.199805 8.523542 -0.835911 0.078050 1.517715 1.376227 -1.157738 10.945473 1.575064 -0.499881 4.252603 -2.106290 0.500969 2.781691 1.144988 1.139874 -4.502193 -0.382461 -0.486446 -19.199940 0.000000 0.000000 0.000000 91.161720 -0.294829 6.790737 67.809898 -20.206202 2.109404 -0.227622 10.240154 38.034069 9.225389 26.000334 -6.995016 9.419904 -1.718382 40.447861 -0.000006 0.000024 -22.878325 -0.000000 0.000058 -15.966907 0.000023 -0.000001 -0.000021 6.972141 15.489465 -7.620224 6.588151 -0.848317 -1.726886 6.735537 0.061670 -1.642572 -0.000006 0.000029 -0.000029 8.352036 6.349982 -9.024496 6.480894 -0.894829 -0.708088 6.534101 0.024797 -0.605403 0.000003 -0.000022 0.000012 13.589781 -8.133602 -10.601314 7.613250 1.794839 1.088194 7.693201 -0.046696 0.845532 -0.000029 -0.000008 0.000010 19.407301 -23.110373 -13.901681 8.151068 3.489631 3.473108 8.005217 -0.164162 3.007483 0.000123 0.000003 0.000005 0.000000 0.000000 0.000000 0.000000 0.000000 0.000000 -92.031006 0.481616 11.594828 -63.585964 36.654400 -0.276754 -1.084710 -13.927729 44.004578 -5.299510 -8.445230 -13.872521 -10.343254 1.794371 40.013519 0.000017 0.000025 -25.165316 0.000014 -0.000025 -17.491861 0.000101 0.000004 0.000106 -15.250032 15.464932 -8.728474 -8.774409 -0.760578 2.270307 -8.726165 0.136261 2.108943 -0.000010 0.000247 0.000008 -13.309930 6.369431 -9.728636 -8.454053 -0.862644 0.858331 -8.195625 0.049877 0.748824 0.000771 -0.000031 -0.000034 -12.018648 -8.172749 -9.304651 -8.988547 1.760211 -1.215604 -8.871322 -0.063013 -0.945049 0.000669 0.000006 0.000000 -8.630613 -23.649099 -11.664838 -8.627394 3.423859 -3.424944 -8.583748 -0.199348 -2.947895 -0.000160 0.000008 -0.000052 0.000000 0.000000 0.000000 0.000000 0.000000 0.000000 0.841692 4.809823 13.713899 -0.096307 -0.461661 10.512327 -4.303468 4.087238 14.286403 -0.322081 0.522812 -19.602848 0.000000 0.000000 0.000000 0.000000 0.000000 0.000000 0.000000 0.000000 0.000000 2.233314 13.122575 17.765312 0.056200 0.668051 6.168088 0.520994 13.295218 15.901889 0.980047 -0.791800 -18.354639 0.000000 0.000000 0.000000 0.000000 0.000000 0.000000 0.000000 0.000000 0.000000 
-0.407649 88.262833 5.287373 0.008670 0.721060 -13.083392 -0.933948 -0.202048 8.529477 -0.832848 0.075977 1.527054 1.378572 -1.184144 10.939617 1.581926 -0.511180 4.238438 -2.097808 0.483229 2.771029 1.147899 1.129012 -4.499631 -0.373872 -0.485568 -19.174725 0.000000 0.000000 0.000000 91.170151 -0.292981 6.819854 67.790016 -20.358662 2.191227 -0.233717 10.166092 38.026104 9.083449 25.906729 -7.006267 9.427788 -1.719260 40.443623 -0.000006 0.000024 -22.900505 0.000000 0.000057 -15.982222 0.000023 -0.000001 -0.000021 7.026733 15.488597 -7.697053 6.624546 -0.846749 -1.739525 6.773105 0.063341 -1.653658 -0.000006 0.000029 -0.000029 8.421976 6.348629 -9.082265 6.518856 -0.894204 -0.712899 6.571977 0.025467 -0.609308 0.000003 -0.000023 0.000013 13.660616 -8.131880 -10.639422 7.653324 1.793655 1.094779 7.732209 -0.047703 0.850677 -0.000029 -0.000019 0.000010 19.466173 -23.107422 -13.904845 8.187613 3.485897 3.491382 8.044077 -0.167530 3.022694 0.000122 0.000003 0.000005 0.000000 0.000000 0.000000 0.000000 0.000000 0.000000 -92.012352 0.469406 11.627713 -63.589233 36.784981 -0.218725 -1.072087 -13.874811 43.947201 -5.317289 -8.613164 -13.855801 -10.350009 1.794963 40.010231 0.000017 0.000025 -25.182295 0.000014 -0.000025 -17.504066 0.000119 0.000003 0.000094 -15.311185 15.462971 -8.730227 -8.797840 -0.758717 2.283064 -8.750491 0.138025 2.120421 -0.000010 0.000237 0.000008 -13.368106 6.368257 -9.723077 -8.473901 -0.861921 0.863093 -8.213421 0.050529 0.752766 0.000771 -0.000031 -0.000035 -12.065516 -8.169767 -9.289923 -8.999167 1.759146 -1.220873 -8.880203 -0.063793 -0.949266 0.000669 0.000006 0.000000 -8.683890 -23.635958 -11.634301 -8.629346 3.421135 -3.439098 -8.585502 -0.201152 -2.959689 -0.000169 0.000007 -0.000052 0.000000 0.000000 0.000000 0.000000 0.000000 0.000000 0.834107 4.796303 13.706164 -0.096125 -0.460514 10.516932 -4.297249 4.080919 14.301581 -0.324789 0.524264 -19.606585 0.000000 0.000000 0.000000 0.000000 0.000000 0.000000 0.000000 0.000000 0.000000 2.227386 13.139402 17.755249 0.055176 0.663752 6.163720 0.523687 13.299994 15.908912 0.978961 -0.791729 -18.347450 0.000000 0.000000 0.000000 0.000000 0.000000 0.000000 0.000000 0.000000 0.000000 
-0.397796 88.264816 5.283244 0.006848 0.735894 -13.075359 -0.938564 -0.204403 8.534619 -0.829553 0.074187 1.535219 1.380696 -1.207084 10.931655 1.588797 -0.521385 4.225026 -2.093508 0.468801 2.760634 1.150764 1.119135 -4.496080 -0.366009 -0.484572 -19.150555 0.000000 0.000000 0.000000 91.176994 -0.292489 6.848011 67.765442 -20.517023 2.274628 -0.239802 10.092939 38.008575 8.946514 25.827122 -7.015770 9.435407 -1.720055 40.439564 -0.000007 0.000024 -22.922287 0.000000 0.000057 -15.997288 0.000023 -0.000001 -0.000021 7.078413 15.487983 -7.771304 6.661282 -0.845273 -1.751539 6.810496 0.064907 -1.664205 -0.000006 0.000029 -0.000029 8.488156 6.347446 -9.138345 6.556744 -0.893605 -0.717463 6.609737 0.026100 -0.613006 0.000003 -0.000024 0.000013 13.728137 -8.130314 -10.678411 7.693211 1.792505 1.101122 7.771086 -0.048666 0.855634 -0.000029 -0.000029 0.000010 19.523829 -23.104570 -13.911124 8.224156 3.482198 3.509028 8.083131 -0.170846 3.037391 0.000120 0.000003 0.000005 0.000000 0.000000 0.000000 0.000000 0.000000 0.000000 -91.992691 0.457589 11.657509 -63.593285 36.909550 -0.164132 -1.060257 -13.822931 43.893055 -5.336776 -8.785365 -13.839478 -10.357648 1.795696 40.006493 0.000017 0.000025 -25.201710 0.000013 -0.000025 -17.517790 0.000137 0.000003 0.000082 -15.372383 15.460614 -8.734691 -8.820565 -0.756977 2.294813 -8.773983 0.139648 2.130954 -0.000010 0.000229 0.000008 -13.425505 6.366967 -9.720292 -8.493018 -0.861243 0.867477 -8.230655 0.051136 0.756380 0.000772 -0.000031 -0.000036 -12.111177 -8.166624 -9.278799 -9.009178 1.758149 -1.225707 -8.888691 -0.064515 -0.953155 0.000667 0.000006 0.000000 -8.736002 -23.622620 -11.608084 -8.631522 3.418526 -3.452215 -8.587653 -0.202838 -2.970645 -0.000177 0.000007 -0.000052 0.000000 0.000000 0.000000 0.000000 0.000000 0.000000 0.827565 4.782512 13.699249 -0.095943 -0.459199 10.523034 -4.291177 4.073848 14.314998 -0.327290 0.525421 -19.610590 0.000000 0.000000 0.000000 0.000000 0.000000 0.000000 0.000000 0.000000 0.000000 2.221600 13.155218 17.744907 0.054202 0.659494 6.159368 0.524921 13.303166 15.915636 0.978099 -0.791508 -18.339790 0.000000 0.000000 0.000000 0.000000 0.000000 0.000000 0.000000 0.000000 0.000000 
-0.388238 88.266541 5.280303 0.004593 0.749976 -13.066496 -0.941920 -0.206889 8.539042 -0.826169 0.072693 1.542084 1.382635 -1.226773 10.922047 1.595518 -0.530506 4.212391 -2.092920 0.457267 2.750258 1.153479 1.110026 -4.491795 -0.358746 -0.483410 -19.127481 0.000000 0.000000 0.000000 91.182487 -0.293166 6.874987 67.737434 -20.679907 2.358474 -0.245889 10.020035 37.980816 8.815381 25.760830 -7.023520 9.442822 -1.720781 40.435612 -0.000007 0.000024 -22.943836 0.000000 0.000057 -16.012197 0.000023 -0.000001 -0.000021 7.127035 15.487620 -7.843238 6.698049 -0.843930 -1.762814 6.847425 0.066329 -1.674104 -0.000005 0.000029 -0.000029 8.550402 6.346426 -9.192864 6.594298 -0.893047 -0.721739 6.647104 0.026683 -0.616466 0.000003 -0.000024 0.000013 13.792378 -8.128904 -10.718163 7.732716 1.791416 1.107170 7.809629 -0.049568 0.860363 -0.000029 -0.000036 0.000010 19.580282 -23.101858 -13.920227 8.260624 3.478624 3.525911 8.122240 -0.174040 3.051469 0.000118 0.000003 0.000005 0.000000 0.000000 0.000000 0.000000 0.000000 0.000000 -91.972366 0.446271 11.684404 -63.598953 37.027840 -0.113910 -1.049209 -13.772273 43.841496 -5.356726 -8.960807 -13.823351 -10.366159 1.796587 40.002331 0.000017 0.000025 -25.223494 0.000012 -0.000025 -17.533009 0.000154 0.000003 0.000072 -15.433259 15.457807 -8.742022 -8.842298 -0.755399 2.305423 -8.796382 0.141091 2.140428 -0.000010 0.000220 0.000009 -13.481861 6.365539 -9.720325 -8.511137 -0.860623 0.871435 -8.247108 0.051688 0.759628 0.000773 -0.000030 -0.000037 -12.155717 -8.163315 -9.271122 -9.018457 1.757247 -1.230061 -8.896683 -0.065164 -0.956678 0.000660 0.000006 0.000000 -8.787243 -23.609093 -11.585895 -8.633930 3.416100 -3.464183 -8.590183 -0.204362 -2.980677 -0.000183 0.000007 -0.000052 0.000000 0.000000 0.000000 0.000000 0.000000 0.000000 0.822079 4.768835 13.693008 -0.095764 -0.457734 10.530492 -4.285206 4.066041 14.326743 -0.329594 0.526305 -19.614820 0.000000 0.000000 0.000000 0.000000 0.000000 0.000000 0.000000 0.000000 0.000000 2.215925 13.170201 17.734617 0.053285 0.655317 6.154889 0.524893 13.304951 15.921923 0.977456 -0.791162 -18.331663 0.000000 0.000000 0.000000 0.000000 0.000000 0.000000 0.000000 0.000000 0.000000 
-0.378990 88.268028 5.278553 0.001910 0.763556 -13.056779 -0.943941 -0.209496 8.542846 -0.822846 0.071504 1.547554 1.384422 -1.243458 10.911169 1.601904 -0.538566 4.200500 -2.095599 0.448169 2.739657 1.155937 1.101400 -4.487027 -0.351939 -0.482042 -19.105455 0.000000 0.000000 0.000000 91.186829 -0.294796 6.900569 67.707184 -20.845694 2.441614 -0.251974 9.947101 37.942707 8.690334 25.706497 -7.029627 9.450092 -1.721461 40.431770 -0.000007 0.000024 -22.965279 0.000000 0.000057 -16.027014 0.000023 -0.000001 -0.000021 7.172287 15.487510 -7.912941 6.734428 -0.842757 -1.773263 6.883506 0.067575 -1.683272 -0.000005 0.000030 -0.000029 8.608419 6.345556 -9.245818 6.631136 -0.892544 -0.725699 6.683685 0.027208 -0.619664 0.000003 -0.000025 0.000013 13.853325 -8.127645 -10.758444 7.771535 1.790412 1.112879 7.847520 -0.050397 0.864832 -0.000029 -0.000041 0.000010 19.635469 -23.099335 -13.931790 8.296823 3.475257 3.541927 8.161149 -0.177051 3.064849 0.000115 0.000002 0.000005 0.000000 0.000000 0.000000 0.000000 0.000000 0.000000 -91.951675 0.435528 11.708635 -63.606720 37.139778 -0.068573 -1.038942 -13.723249 43.792343 -5.376000 -9.137872 -13.807184 -10.375517 1.797637 39.997723 0.000017 0.000025 -25.247528 0.000012 -0.000024 -17.549671 0.000170 0.000002 0.000062 -15.493383 15.454543 -8.752314 -8.862800 -0.754010 2.314815 -8.817488 0.142327 2.148777 -0.000010 0.000213 0.000009 -13.536897 6.363969 -9.723154 -8.528019 -0.860075 0.874937 -8.262592 0.052176 0.762491 0.000775 -0.000030 -0.000038 -12.199234 -8.159842 -9.266710 -9.026938 1.756456 -1.233914 -8.904114 -0.065730 -0.959818 0.000650 0.000006 0.000000 -8.837921 -23.595436 -11.567457 -8.636611 3.413907 -3.474970 -8.593131 -0.205695 -2.989756 -0.000188 0.000006 -0.000052 0.000000 0.000000 0.000000 0.000000 0.000000 0.000000 0.817571 4.755527 13.687203 -0.095595 -0.456149 10.539159 -4.279314 4.057545 14.336950 -0.331712 0.526948 -19.619240 0.000000 0.000000 0.000000 0.000000 0.000000 0.000000 0.000000 0.000000 0.000000 2.210315 13.184482 17.724630 0.052435 0.651266 6.150089 0.523807 13.305481 15.927715 0.977017 -0.790732 -18.323145 0.000000 0.000000 0.000000 0.000000 0.000000 0.000000 0.000000 0.000000 0.000000 
